<?xml version="1.0" encoding="UTF-8"?>
<svg id="anova-logo-svg" xmlns="http://www.w3.org/2000/svg" xmlns:xlink="http://www.w3.org/1999/xlink" version="1.1" viewBox="0 0 250 269.05">
  <!-- Generator: Adobe Illustrator 30.2.1, SVG Export Plug-In . SVG Version: 2.1.1 Build 1)  -->
  <defs>
    <style>
      .st0, .st1, .st2, .st3, .st4, .st5 {
        fill: none;
      }

      .st6 {
        filter: url(#blur12);
        opacity: .6;
      }

      .st6, .st7, .st1, .st8, .st9, .st2, .st10, .st11, .st12, .st13, .st14, .st15 {
        isolation: isolate;
      }

      .st7 {
        filter: url(#blur25);
        opacity: .7;
      }

      .st1 {
        stroke: #fff;
      }

      .st1, .st8, .st10 {
        opacity: .8;
      }

      .st1, .st2, .st16, .st3, .st4, .st5 {
        stroke-miterlimit: 2.88;
      }

      .st1, .st3 {
        stroke-width: .72px;
      }

      .st8, .st9 {
        fill: aqua;
      }

      .st9, .st12 {
        opacity: .3;
      }

      .st17 {
        fill: url(#linear-gradient2);
      }

      .st18 {
        fill: url(#linear-gradient3);
      }

      .st19 {
        fill: url(#linear-gradient5);
      }

      .st20 {
        fill: url(#linear-gradient4);
      }

      .st2, .st16, .st3, .st4 {
        stroke: #00e5ff;
      }

      .st2, .st16, .st4 {
        stroke-width: 1.08px;
      }

      .st2, .st15 {
        opacity: .4;
      }

      .st16 {
        fill: #00e5ff;
      }

      .st21 {
        fill: url(#radial-gradient);
      }

      .st22 {
        fill: url(#linear-gradient);
        stroke: url(#linear-gradient1);
        stroke-linejoin: round;
        stroke-width: 4.32px;
      }

      .st23 {
        fill: #ff5722;
      }

      .st24 {
        fill: #ff9800;
      }

      .st3 {
        stroke-dasharray: 2.88 5.76;
      }

      .st25 {
        opacity: .15;
      }

      .st5 {
        stroke: aqua;
        stroke-width: 1.44px;
      }

      .st10 {
        filter: url(#blur121);
      }

      .st11 {
        filter: url(#blur122);
      }

      .st11, .st13 {
        opacity: .9;
      }

      .st26 {
        clip-path: url(#clippath);
      }

      .st12, .st14, .st15 {
        fill: #fff;
      }

      .st13 {
        filter: url(#glow5);
      }

      .st14 {
        opacity: .5;
      }
    </style>
    <filter id="blur12" x="-50%" y="-50%" width="200%" height="200%">
      <feGaussianBlur stdDeviation="12"/>
    </filter>
    <linearGradient id="linear-gradient" x1="-19.29" y1="350.53" x2="-18.29" y2="349.53" gradientTransform="translate(3756.65 78260.46) scale(193.25 -223.2)" gradientUnits="userSpaceOnUse">
      <stop offset="0" stop-color="#242834"/>
      <stop offset=".5" stop-color="#151820"/>
      <stop offset="1" stop-color="#0a0c11"/>
    </linearGradient>
    <linearGradient id="linear-gradient1" x1="-19.29" y1="350.53" x2="-18.29" y2="349.53" gradientTransform="translate(3756.65 78260.46) scale(193.25 -223.2)" gradientUnits="userSpaceOnUse">
      <stop offset="0" stop-color="#4a5568" stop-opacity=".8"/>
      <stop offset="1" stop-color="#1a202c" stop-opacity=".8"/>
    </linearGradient>
    <clipPath id="clippath">
      <polygon class="st0" points="124.71 22.93 221.33 78.73 221.33 190.33 124.71 246.13 28.08 190.33 28.08 78.73 124.71 22.93"/>
    </clipPath>
    <linearGradient id="linear-gradient2" x1="-18.79" y1="350.53" x2="-18.79" y2="349.53" gradientTransform="translate(3913.61 41773.48) scale(201.6 -118.8)" gradientUnits="userSpaceOnUse">
      <stop offset="0" stop-color="#0af" stop-opacity=".6"/>
      <stop offset=".5" stop-color="#04b" stop-opacity=".4"/>
      <stop offset="1" stop-color="#003" stop-opacity=".1"/>
    </linearGradient>
    <filter id="blur121" data-name="blur12" x="-50%" y="-50%" width="200%" height="200%">
      <feGaussianBlur stdDeviation="12"/>
    </filter>
    <radialGradient id="radial-gradient" cx="-18.79" cy="350.03" fx="-18.79" fy="350.03" r=".5" gradientTransform="translate(2289.8 15306.07) scale(115.2 -43.2)" gradientUnits="userSpaceOnUse">
      <stop offset="0" stop-color="#ff3d00" stop-opacity=".9"/>
      <stop offset=".5" stop-color="#ff7300" stop-opacity=".4"/>
      <stop offset="1" stop-color="#ff3d00" stop-opacity="0"/>
    </radialGradient>
    <linearGradient id="linear-gradient3" x1="-18.79" y1="350.53" x2="-18.79" y2="349.53" gradientTransform="translate(3913.61 39256.89) scale(201.6 -111.6)" gradientUnits="userSpaceOnUse">
      <stop offset="0" stop-color="#00e5ff" stop-opacity=".85"/>
      <stop offset=".4" stop-color="#08f" stop-opacity=".6"/>
      <stop offset="1" stop-color="#014" stop-opacity=".2"/>
    </linearGradient>
    <filter id="glow5" x="-50%" y="-50%" width="200%" height="200%">
      <feGaussianBlur result="blur" stdDeviation="5"/>
      <feMerge>
        <feMergeNode in="blur"/>
        <feMergeNode in="SourceGraphic"/>
      </feMerge>
    </filter>
    <filter id="blur25" x="-50%" y="-50%" width="200%" height="200%">
      <feGaussianBlur stdDeviation="25"/>
    </filter>
    <filter id="blur122" data-name="blur12" x="-50%" y="-50%" width="200%" height="200%">
      <feGaussianBlur stdDeviation="12"/>
    </filter>
    <linearGradient id="linear-gradient4" x1="-18.79" y1="350.53" x2="-18.79" y2="349.53" gradientTransform="translate(2425.11 45490.77) scale(122.4 -129.6)" gradientUnits="userSpaceOnUse">
      <stop offset="0" stop-color="#ffca28"/>
      <stop offset=".4" stop-color="#ff9800"/>
      <stop offset="1" stop-color="#ff3d00"/>
    </linearGradient>
    <linearGradient id="linear-gradient5" x1="-19.29" y1="350.53" x2="-18.29" y2="349.53" gradientTransform="translate(3756.65 78260.46) scale(193.25 -223.2)" gradientUnits="userSpaceOnUse">
      <stop offset="0" stop-color="#fff" stop-opacity=".15"/>
      <stop offset=".3" stop-color="#fff" stop-opacity=".05"/>
      <stop offset=".3" stop-color="#fff" stop-opacity="0"/>
      <stop offset="1" stop-color="#fff" stop-opacity="0"/>
    </linearGradient>
  </defs>
  <g class="st6">
    <polygon points="124.71 30.13 221.33 85.93 221.33 197.53 124.71 253.33 28.08 197.53 28.08 85.93 124.71 30.13"/>
  </g>
  <path class="st22" d="M124.71,22.93l96.62,55.8v111.6l-96.62,55.8-96.62-55.8v-111.6L124.71,22.93Z"/>
  <g class="st25">
    <path class="st4" d="M124.71,22.93v32.4"/>
    <path class="st4" d="M67.11,98.53h28.8l14.4,14.4"/>
    <path class="st4" d="M182.31,98.53h-28.8l-14.4,14.4"/>
    <circle class="st16" cx="67.11" cy="98.53" r="2.16"/>
    <circle class="st16" cx="182.31" cy="98.53" r="2.16"/>
    <circle class="st3" cx="124.71" cy="134.53" r="79.2"/>
  </g>
  <g class="st26">
    <g>
      <path class="st17" d="M23.91,141.73c24,14.4,46.8,14.4,68.4,0s43.2-14.4,64.8,0,44.4,14.4,68.4,0v108H23.91v-108Z"/>
      <g class="st10">
        <ellipse class="st21" cx="124.71" cy="184.93" rx="57.6" ry="21.6"/>
      </g>
      <path class="st18" d="M23.91,148.93c24-14.4,46.8-14.4,68.4,0s43.2,14.4,64.8,0,44.4-14.4,68.4,0v100.8H23.91v-100.8Z"/>
      <g class="st13">
        <path class="st5" d="M23.91,148.93c24-14.4,46.8-14.4,68.4,0s43.2,14.4,64.8,0,44.4-14.4,68.4,0"/>
      </g>
      <path class="st1" d="M23.91,148.93c24-14.4,46.8-14.4,68.4,0s43.2,14.4,64.8,0,44.4-14.4,68.4,0"/>
      <g>
        <circle class="st12" cx="67.11" cy="213.73" r="2.52"/>
        <circle class="st14" cx="77.91" cy="184.93" r="1.44"/>
        <circle class="st15" cx="56.31" cy="170.53" r="1.8"/>
        <circle class="st9" cx="103.11" cy="195.73" r="5.76"/>
        <circle class="st8" cx="103.11" cy="195.73" r="2.88"/>
        <circle class="st14" cx="113.91" cy="174.13" r="1.44"/>
        <circle class="st15" cx="135.51" cy="199.33" r="2.16"/>
        <circle class="st12" cx="146.31" cy="166.93" r="3.24"/>
        <circle class="st15" cx="178.71" cy="220.93" r="2.16"/>
        <circle class="st14" cx="189.51" cy="177.73" r="1.8"/>
      </g>
    </g>
  </g>
  <g class="st7">
    <polygon class="st23" points="108.51 62.53 140.91 62.53 185.91 192.13 153.51 192.13 124.71 109.18 95.91 192.13 63.51 192.13 108.51 62.53"/>
  </g>
  <g class="st11">
    <polygon class="st24" points="108.51 62.53 140.91 62.53 185.91 192.13 153.51 192.13 124.71 109.18 95.91 192.13 63.51 192.13 108.51 62.53"/>
  </g>
  <path class="st20" d="M108.51,62.53h32.4l45,129.6h-32.4l-28.8-82.94-28.8,82.94h-32.4L108.51,62.53Z"/>
  <path class="st19" d="M124.71,22.93l96.62,55.8v111.6l-96.62,55.8-96.62-55.8v-111.6L124.71,22.93Z" pointer-events="none"/>
  <path class="st2" d="M28.08,78.73L124.71,22.93l96.62,55.8" pointer-events="none"/>
</svg>