<?xml version="1.0" encoding="UTF-8"?>
<svg id="anova-logo-svg" xmlns="http://www.w3.org/2000/svg" xmlns:xlink="http://www.w3.org/1999/xlink" version="1.1" viewBox="0 0 245.05 263.72">
  <!-- Generator: Adobe Illustrator 30.2.1, SVG Export Plug-In . SVG Version: 2.1.1 Build 1)  -->
  <defs>
    <style>
      .st0, .st1, .st2, .st3, .st4, .st5 {
        fill: none;
      }

      .st6 {
        filter: url(#blur12);
        opacity: .6;
      }

      .st6, .st7, .st1, .st8, .st9, .st2, .st10, .st11, .st12, .st13, .st14, .st15 {
        isolation: isolate;
      }

      .st7 {
        filter: url(#blur25);
        opacity: .7;
      }

      .st1 {
        stroke: #fff;
      }

      .st1, .st8, .st10 {
        opacity: .8;
      }

      .st1, .st2, .st16, .st3, .st4, .st5 {
        stroke-miterlimit: 2.88;
      }

      .st1, .st3 {
        stroke-width: .72px;
      }

      .st8, .st9 {
        fill: aqua;
      }

      .st9, .st12 {
        opacity: .3;
      }

      .st17 {
        fill: url(#linear-gradient2);
      }

      .st18 {
        fill: url(#linear-gradient3);
      }

      .st19 {
        fill: url(#linear-gradient5);
      }

      .st20 {
        fill: url(#linear-gradient4);
      }

      .st2, .st16, .st3, .st4 {
        stroke: #00e5ff;
      }

      .st2, .st16, .st4 {
        stroke-width: 1.08px;
      }

      .st2, .st15 {
        opacity: .4;
      }

      .st16 {
        fill: #00e5ff;
      }

      .st21 {
        fill: url(#radial-gradient);
      }

      .st22 {
        fill: url(#linear-gradient);
        stroke: url(#linear-gradient1);
        stroke-linejoin: round;
        stroke-width: 4.32px;
      }

      .st23 {
        fill: #ff5722;
      }

      .st24 {
        fill: #ff9800;
      }

      .st3 {
        stroke-dasharray: 2.88 5.76;
      }

      .st25 {
        opacity: .15;
      }

      .st5 {
        stroke: aqua;
        stroke-width: 1.44px;
      }

      .st10 {
        filter: url(#blur121);
      }

      .st11 {
        filter: url(#blur122);
      }

      .st11, .st13 {
        opacity: .9;
      }

      .st26 {
        clip-path: url(#clippath);
      }

      .st12, .st14, .st15 {
        fill: #fff;
      }

      .st13 {
        filter: url(#glow5);
      }

      .st14 {
        opacity: .5;
      }
    </style>
    <filter id="blur12" x="-50%" y="-50%" width="200%" height="200%">
      <feGaussianBlur stdDeviation="12"/>
    </filter>
    <linearGradient id="linear-gradient" x1="-21.77" y1="347.86" x2="-20.77" y2="346.86" gradientTransform="translate(4232.6 77663.09) scale(193.25 -223.2)" gradientUnits="userSpaceOnUse">
      <stop offset="0" stop-color="#242834"/>
      <stop offset=".5" stop-color="#151820"/>
      <stop offset="1" stop-color="#0a0c11"/>
    </linearGradient>
    <linearGradient id="linear-gradient1" x1="-21.77" y1="347.86" x2="-20.77" y2="346.86" gradientTransform="translate(4232.6 77663.09) scale(193.25 -223.2)" gradientUnits="userSpaceOnUse">
      <stop offset="0" stop-color="#4a5568" stop-opacity=".8"/>
      <stop offset="1" stop-color="#1a202c" stop-opacity=".8"/>
    </linearGradient>
    <clipPath id="clippath">
      <polygon class="st0" points="122.23 20.26 218.85 76.06 218.85 187.66 122.23 243.46 25.61 187.66 25.61 76.06 122.23 20.26"/>
    </clipPath>
    <linearGradient id="linear-gradient2" x1="-21.27" y1="347.86" x2="-21.27" y2="346.86" gradientTransform="translate(4410.25 41454.28) scale(201.6 -118.8)" gradientUnits="userSpaceOnUse">
      <stop offset="0" stop-color="#0af" stop-opacity=".6"/>
      <stop offset=".5" stop-color="#04b" stop-opacity=".4"/>
      <stop offset="1" stop-color="#003" stop-opacity=".1"/>
    </linearGradient>
    <filter id="blur121" data-name="blur12" x="-50%" y="-50%" width="200%" height="200%">
      <feGaussianBlur stdDeviation="12"/>
    </filter>
    <radialGradient id="radial-gradient" cx="-21.27" cy="347.36" fx="-21.27" fy="347.36" r=".5" gradientTransform="translate(2572.53 15188.31) scale(115.2 -43.2)" gradientUnits="userSpaceOnUse">
      <stop offset="0" stop-color="#ff3d00" stop-opacity=".9"/>
      <stop offset=".5" stop-color="#ff7300" stop-opacity=".4"/>
      <stop offset="1" stop-color="#ff3d00" stop-opacity="0"/>
    </radialGradient>
    <linearGradient id="linear-gradient3" x1="-21.27" y1="347.86" x2="-21.27" y2="346.86" gradientTransform="translate(4410.25 38956.88) scale(201.6 -111.6)" gradientUnits="userSpaceOnUse">
      <stop offset="0" stop-color="#00e5ff" stop-opacity=".85"/>
      <stop offset=".4" stop-color="#08f" stop-opacity=".6"/>
      <stop offset="1" stop-color="#014" stop-opacity=".2"/>
    </linearGradient>
    <filter id="glow5" x="-50%" y="-50%" width="200%" height="200%">
      <feGaussianBlur result="blur" stdDeviation="5"/>
      <feMerge>
        <feMergeNode in="blur"/>
        <feMergeNode in="SourceGraphic"/>
      </feMerge>
    </filter>
    <filter id="blur25" x="-50%" y="-50%" width="200%" height="200%">
      <feGaussianBlur stdDeviation="25"/>
    </filter>
    <filter id="blur122" data-name="blur12" x="-50%" y="-50%" width="200%" height="200%">
      <feGaussianBlur stdDeviation="12"/>
    </filter>
    <linearGradient id="linear-gradient4" x1="-21.27" y1="347.86" x2="-21.27" y2="346.86" gradientTransform="translate(2725.67 45142.8) scale(122.4 -129.6)" gradientUnits="userSpaceOnUse">
      <stop offset="0" stop-color="#ffca28"/>
      <stop offset=".4" stop-color="#ff9800"/>
      <stop offset="1" stop-color="#ff3d00"/>
    </linearGradient>
    <linearGradient id="linear-gradient5" x1="-21.77" y1="347.86" x2="-20.77" y2="346.86" gradientTransform="translate(4232.6 77663.09) scale(193.25 -223.2)" gradientUnits="userSpaceOnUse">
      <stop offset="0" stop-color="#fff" stop-opacity=".15"/>
      <stop offset=".3" stop-color="#fff" stop-opacity=".05"/>
      <stop offset=".3" stop-color="#fff" stop-opacity="0"/>
      <stop offset="1" stop-color="#fff" stop-opacity="0"/>
    </linearGradient>
  </defs>
  <g class="st6">
    <polygon points="122.23 27.46 218.85 83.26 218.85 194.86 122.23 250.66 25.61 194.86 25.61 83.26 122.23 27.46"/>
  </g>
  <path class="st22" d="M122.23,20.26l96.62,55.8v111.6l-96.62,55.8-96.62-55.8v-111.6L122.23,20.26Z"/>
  <g class="st25">
    <path class="st4" d="M122.23,20.26v32.4"/>
    <path class="st4" d="M64.63,95.86h28.8l14.4,14.4"/>
    <path class="st4" d="M179.83,95.86h-28.8l-14.4,14.4"/>
    <circle class="st16" cx="64.63" cy="95.86" r="2.16"/>
    <circle class="st16" cx="179.83" cy="95.86" r="2.16"/>
    <circle class="st3" cx="122.23" cy="131.86" r="79.2"/>
  </g>
  <g class="st26">
    <g>
      <path class="st17" d="M21.43,139.06c24,14.4,46.8,14.4,68.4,0s43.2-14.4,64.8,0,44.4,14.4,68.4,0v108H21.43v-108Z"/>
      <g class="st10">
        <ellipse class="st21" cx="122.23" cy="182.26" rx="57.6" ry="21.6"/>
      </g>
      <path class="st18" d="M21.43,146.26c24-14.4,46.8-14.4,68.4,0s43.2,14.4,64.8,0,44.4-14.4,68.4,0v100.8H21.43v-100.8Z"/>
      <g class="st13">
        <path class="st5" d="M21.43,146.26c24-14.4,46.8-14.4,68.4,0s43.2,14.4,64.8,0,44.4-14.4,68.4,0"/>
      </g>
      <path class="st1" d="M21.43,146.26c24-14.4,46.8-14.4,68.4,0s43.2,14.4,64.8,0,44.4-14.4,68.4,0"/>
      <g>
        <circle class="st12" cx="64.63" cy="211.06" r="2.52"/>
        <circle class="st14" cx="75.43" cy="182.26" r="1.44"/>
        <circle class="st15" cx="53.83" cy="167.86" r="1.8"/>
        <circle class="st9" cx="100.63" cy="193.06" r="5.76"/>
        <circle class="st8" cx="100.63" cy="193.06" r="2.88"/>
        <circle class="st14" cx="111.43" cy="171.46" r="1.44"/>
        <circle class="st15" cx="133.03" cy="196.66" r="2.16"/>
        <circle class="st12" cx="143.83" cy="164.26" r="3.24"/>
        <circle class="st15" cx="176.23" cy="218.26" r="2.16"/>
        <circle class="st14" cx="187.03" cy="175.06" r="1.8"/>
      </g>
    </g>
  </g>
  <g class="st7">
    <polygon class="st23" points="106.03 59.86 138.43 59.86 183.43 189.46 151.03 189.46 122.23 106.52 93.43 189.46 61.03 189.46 106.03 59.86"/>
  </g>
  <g class="st11">
    <polygon class="st24" points="106.03 59.86 138.43 59.86 183.43 189.46 151.03 189.46 122.23 106.52 93.43 189.46 61.03 189.46 106.03 59.86"/>
  </g>
  <path class="st20" d="M106.03,59.86h32.4l45,129.6h-32.4l-28.8-82.94-28.8,82.94h-32.4L106.03,59.86Z"/>
  <path class="st19" d="M122.23,20.26l96.62,55.8v111.6l-96.62,55.8-96.62-55.8v-111.6L122.23,20.26Z" pointer-events="none"/>
  <path class="st2" d="M25.61,76.06L122.23,20.26l96.62,55.8" pointer-events="none"/>
</svg>